<?xml version="1.0" encoding="utf-8" ?>
<svg baseProfile="full" height="100px" version="1.1" viewBox="0 0 100 100" width="100px" xmlns="http://www.w3.org/2000/svg" xmlns:ev="http://www.w3.org/2001/xml-events" xmlns:xlink="http://www.w3.org/1999/xlink"><defs /><path d="M 50 50 L 50.00 50.00 L 50.14 50.02 L 50.26 50.10 L 50.36 50.21 L 50.43 50.36 L 50.45 50.53 L 50.42 50.72 L 50.33 50.91 L 50.19 51.09 L 50.00 51.25 L 49.76 51.37 L 49.48 51.44 L 49.17 51.44 L 48.84 51.38 L 48.51 51.25 L 48.20 51.04 L 47.91 50.76 L 47.67 50.41 L 47.50 50.00 L 47.40 49.54 L 47.39 49.05 L 47.47 48.54 L 47.66 48.04 L 47.95 47.55 L 48.33 47.11 L 48.81 46.74 L 49.37 46.44 L 50.00 46.25 L 50.68 46.17 L 51.38 46.22 L 52.08 46.39 L 52.77 46.70 L 53.40 47.14 L 53.97 47.71 L 54.44 48.38 L 54.79 49.16 L 55.00 50.00 L 55.06 50.89 L 54.96 51.81 L 54.69 52.71 L 54.26 53.57 L 53.66 54.36 L 52.92 55.05 L 52.04 55.61 L 51.06 56.02 L 50.00 56.25 L 48.89 56.29 L 47.77 56.13 L 46.67 55.77 L 45.63 55.21 L 44.68 54.46 L 43.87 53.54 L 43.21 52.47 L 42.75 51.28 L 42.50 50.00 L 42.48 48.67 L 42.69 47.34 L 43.14 46.04 L 43.83 44.82 L 44.73 43.72 L 45.83 42.78 L 47.10 42.04 L 48.50 41.52 L 50.00 41.25 L 51.54 41.25 L 53.09 41.52 L 54.58 42.06 L 55.98 42.87 L 57.23 43.93 L 58.30 45.21 L 59.14 46.67 L 59.71 48.29 L 60.00 50.00 L 59.98 51.76 L 59.66 53.52 L 59.02 55.21 L 58.09 56.78 L 56.87 58.19 L 55.42 59.38 L 53.75 60.31 L 51.93 60.94 L 50.00 61.25 L 48.02 61.22 L 46.06 60.83 L 44.17 60.10 L 42.41 59.04 L 40.85 57.68 L 39.54 56.04 L 38.51 54.18 L 37.83 52.15 L 37.50 50.00 L 37.55 47.81 L 37.99 45.63 L 38.81 43.54 L 40.00 41.61 L 41.52 39.89 L 43.33 38.45 L 45.39 37.34 L 47.64 36.60 L 50.00 36.25 L 52.41 36.32 L 54.80 36.82 L 57.08 37.73 L 59.20 39.04 L 61.07 40.72 L 62.63 42.71 L 63.83 44.96 L 64.64 47.42" fill="none" stroke="black" stroke-width="2" /></svg>